<?xml version='1.0' encoding='UTF-8'?>
<svg xmlns="http://www.w3.org/2000/svg" width="32" height="32" viewBox="2 2 28 28" fill="currentColor">
<path d="M22.4667 7.80492C17.9 4.70492 11.9867 5.12047 7.91334 8.43158C8.5 8.5827 9.07112 8.83381 9.6 9.19381C10.6356 9.89603 11.3622 11.3271 11.7156 12.4316C12.9467 10.9138 15.2978 9.03381 18.4889 8.66936C19.0556 8.58936 19.1422 8.95381 18.6644 9.17825C16.3578 10.1271 14.2533 11.956 12.9022 13.9471C13.9156 14.0538 14.92 14.3294 15.8778 14.7716L10.7022 22.3983C10.42 22.8138 9.99112 23.096 9.49778 23.1916C9.00445 23.2849 8.50223 23.1827 8.08667 22.9005C7.67111 22.6183 7.38889 22.1894 7.29334 21.696C7.19778 21.2027 7.30223 20.7005 7.58445 20.2849C8.06223 19.5805 7.87778 18.6227 7.17556 18.1471C6.47111 17.6694 5.51334 17.8516 5.03556 18.556C4.29111 19.6538 4.01778 20.9738 4.26667 22.276C4.51556 23.5783 5.25778 24.7049 6.35334 25.4494C7.18445 26.0138 8.14667 26.3071 9.13111 26.3071C9.44445 26.3071 9.76 26.2783 10.0756 26.2183C11.3778 25.9694 12.5044 25.2271 13.2489 24.1294L18.4244 16.5049C19.1889 17.2316 19.8133 18.0627 20.2889 18.9649C21.64 16.9738 22.5622 14.3449 22.5933 11.8494C22.6244 11.3227 22.9933 11.2671 23.1311 11.8249C23.9711 14.9249 23.0911 17.8071 22.1356 19.5094C23.2933 19.4316 24.8911 19.5783 25.9267 20.2805C26.4556 20.6405 26.9022 21.0783 27.2578 21.5671C28.8311 16.5605 27.0311 10.9116 22.4644 7.81159L22.4667 7.80492Z"/>
</svg>