<?xml version='1.0' encoding='UTF-8'?>
<svg xmlns="http://www.w3.org/2000/svg" width="32" height="32" viewBox="1.5 1.5 29 29" fill="currentColor">
<path d="M27.4378 14.0714C26.9356 11.9803 26.4289 9.88916 25.9222 7.79805V7.79361C25.7178 6.9425 25.5289 5.42028 25.22 4.81361C24.7089 3.81139 22.5667 4.02028 21.0289 4.95805C20.04 5.56028 20.6267 6.98694 20.86 7.34694C20.0622 8.20694 20.5956 9.27805 22.0489 9.64028C22.1422 9.6625 22.2378 9.67805 22.3333 9.68694C22.6311 11.5425 22.96 13.5714 23.1156 14.5314C23.14 14.6847 23.1067 14.8914 23.0178 15.0158C22.5333 15.7003 21.0933 17.7447 19.5111 19.3403C20.1511 18.3558 20.4578 17.1447 20.28 15.8892C19.8933 13.1247 17.3378 11.1958 14.5733 11.5825C11.8089 11.9692 9.88 14.5247 10.2667 17.2892C10.5622 19.4047 12.1289 21.0292 14.0867 21.5025C14.0511 21.5981 14.0111 21.6892 13.9556 21.7758C13.8667 21.9136 13.7556 22.0381 13.6222 22.1381C13.56 22.1847 13.4933 22.2269 13.4222 22.2647L12.3333 22.8203L12.1022 22.9381C11.8067 23.0892 11.5511 23.2981 11.3422 23.5447C11.06 23.8781 10.8644 24.2803 10.7867 24.7225L10.6267 25.6381L10.24 27.8514H24.1533L23.28 26.0469L22.7289 24.9092C24.0978 22.2936 26.4044 17.8869 27.0689 16.5403C27.4444 15.7758 27.6378 14.9403 27.4311 14.0736L27.4378 14.0714Z"/>
<path d="M11.32 11.2961C10.7311 9.80941 9.18889 8.85607 7.53333 9.08719C5.59333 9.36052 4.24 11.1516 4.51333 13.0916C4.72 14.5761 5.82 15.7161 7.19333 16.0472C7.16889 16.1139 7.14 16.1783 7.10222 16.2383C7.04 16.3361 6.96222 16.4227 6.86889 16.4939C6.82444 16.5272 6.77778 16.5561 6.72889 16.5827L5.96666 16.9739L5.80444 17.0561C5.59778 17.1627 5.41778 17.3094 5.27111 17.4805C5.07333 17.7139 4.93555 17.9961 4.88222 18.305L4.77111 18.9472L4.49555 20.5027H9.95333C9.32 19.6405 8.89333 18.6161 8.73555 17.5005C8.49111 15.7539 8.94222 14.0161 10.0044 12.6072C10.3844 12.1027 10.8267 11.665 11.3178 11.2961H11.32Z"/>
</svg>