<?xml version='1.0' encoding='UTF-8'?>
<svg xmlns="http://www.w3.org/2000/svg" width="32" height="32" viewBox="2.5 2.5 27 27" fill="currentColor">
<path d="M25.0022 13.6017V14.7973H26.96V13.2017C26.96 10.0329 24.3822 7.45508 21.2133 7.45508C19.14 7.45508 17.32 8.55952 16.3089 10.2084C15.3267 8.53286 13.5156 7.45508 11.3533 7.45508C7.81112 7.45508 4.82001 10.0862 4.82001 13.2017V14.7973H6.77778V13.6017C6.77778 12.5995 7.59334 11.784 8.59556 11.784C9.59779 11.784 10.4133 12.5995 10.4133 13.6017V18.384H21.3711V13.6017C21.3711 12.5995 22.1867 11.784 23.1889 11.784C24.1911 11.784 25.0067 12.5995 25.0067 13.6017H25.0022ZM15.1422 16.4262H12.3667V13.6017C12.3667 11.7329 11.0022 10.1773 9.21778 9.87952C9.86223 9.58174 10.5933 9.41063 11.3511 9.41063C13.5822 9.41063 15.14 10.9684 15.14 13.1995V16.4262H15.1422Z"/>
<path d="M25.5355 15.9336C24.3355 15.9336 23.3622 16.9069 23.3622 18.1069C23.3622 19.3069 24.3355 20.2803 25.5355 20.2803C26.7355 20.2803 27.7089 19.3069 27.7089 18.1069C27.7089 16.9069 26.7355 15.9336 25.5355 15.9336Z"/>
<path d="M22.28 20.2822H9.52222V24.5444H22.28V20.2822Z"/>
<path d="M6.46444 15.9336C5.26444 15.9336 4.29111 16.9069 4.29111 18.1069C4.29111 19.3069 5.26444 20.2803 6.46444 20.2803C7.66444 20.2803 8.63777 19.3069 8.63777 18.1069C8.63777 16.9069 7.66444 15.9336 6.46444 15.9336V15.9336Z"/>
</svg>