<?xml version='1.0' encoding='UTF-8'?>
<svg xmlns="http://www.w3.org/2000/svg" width="32" height="32" viewBox="1.5 1 29 29" fill="currentColor">
<path d="M12.1572 5.3316L15.0954 11.8941H11.2257L14.614 18.5434C15.0548 18.4272 15.5178 18.3644 15.9955 18.3644C16.4732 18.3644 16.9601 18.4308 17.412 18.5526L15.8608 14.2808H20.0588L18.3361 5.34451V5.3316H18.3342V5.32422H12.1553L12.159 5.3316H12.1572Z"/>
<path d="M15.9973 20.5596C15.0068 20.5596 14.1197 21.0059 13.5258 21.7087C13.048 22.2731 12.7603 22.9998 12.7603 23.7966C12.7603 25.5838 14.21 27.0336 15.9973 27.0336C17.7846 27.0336 19.2343 25.5838 19.2343 23.7966C19.2343 23.0016 18.9466 22.2749 18.4726 21.7123C17.8786 21.0078 16.9915 20.5596 15.9973 20.5596V20.5596Z"/>
<path d="M10.9786 21.7211C11.2958 20.9575 11.7809 20.2825 12.3896 19.7402L6.79538 10.0495H11.9174L10.903 7.69043H2.87778L10.9786 21.7211Z"/>
<path d="M20.8685 7.69043L21.2853 10.0495H25.2195L19.6124 19.7439C20.2211 20.2861 20.7062 20.9631 21.0216 21.7285L29.139 7.69043H20.8666H20.8685Z"/>
</svg>