<?xml version='1.0' encoding='UTF-8'?>
<svg xmlns="http://www.w3.org/2000/svg" width="32" height="32" viewBox="2 2 28 28" fill="currentColor">
<path d="M25.0844 21.7646L21.0867 26.1158H24.9889L27.8489 21.7646H25.0844Z"/>
<path d="M4.15111 21.7646L7.01111 26.1158H10.9133L6.91556 21.7646H4.15111Z"/>
<path d="M27.0244 19.4803V15.8825H25.8111L24.4644 9.21365H21.3778L18.5978 5.88477H13.4044L10.6244 9.21588H7.53556L6.18889 15.8848H4.97556V19.4825H7.91778L14.0156 26.1181H17.9844L24.0822 19.4825H27.0244V19.4803ZM16 9.04477L18.0822 12.3692L16 15.0359L13.9178 12.3692L16 9.04477V9.04477ZM20.1711 17.8759L16 22.5003L11.8289 17.8759L9.29556 16.6825L10.2689 14.6159L15.9978 17.3137L21.7267 14.6159L22.7 16.6825L20.1667 17.8759H20.1711Z"/>
</svg>