<?xml version='1.0' encoding='UTF-8'?>
<svg xmlns="http://www.w3.org/2000/svg" width="32" height="32" viewBox="2 2 28 28" fill="currentColor">
<path d="M23.2933 12.7311C22.7111 7.96226 18.64 4.25781 13.7178 4.25781C8.39555 4.25781 4.06667 8.5867 4.06667 13.9089C4.06667 19.2311 8.08667 23.24 13.1378 23.54C14.4511 26.0378 17.0689 27.74 20.0867 27.74C24.42 27.74 27.9356 24.2267 27.9356 19.8911C27.9356 16.7 26.0289 13.9556 23.2956 12.7289L23.2933 12.7311ZM6.27111 13.9089C6.27111 9.79559 9.60444 6.46226 13.7178 6.46226C17.2044 6.46226 20.1289 8.85781 20.94 12.0934C21.0867 12.6756 21.1644 13.2823 21.1644 13.9089C21.1644 18.0223 17.8311 21.3556 13.7178 21.3556C13.2511 21.3556 12.7978 21.3111 12.3556 21.2289C8.89333 20.5889 6.27111 17.5556 6.27111 13.9089V13.9089Z"/>
<path d="M16.1133 19.0621C15.8956 18.7377 15.7778 18.3555 15.7778 17.9555C15.7778 17.4243 15.9844 16.9266 16.36 16.5532C16.7356 16.1799 17.2333 15.971 17.7622 15.971C18.16 15.971 18.5444 16.0888 18.8689 16.3066C19.2089 15.5777 19.4 14.7666 19.4 13.911C19.4 13.2821 19.2956 12.6777 19.1067 12.111C18.3511 9.85767 16.2222 8.22656 13.7178 8.22656C12.8622 8.22656 12.0511 8.41767 11.3222 8.75767C11.54 9.08212 11.6578 9.46434 11.6578 9.86434C11.6578 10.3955 11.4511 10.8932 11.0756 11.2666C10.7 11.6421 10.2022 11.8488 9.67333 11.8488H9.67111C9.27111 11.8488 8.89111 11.731 8.56666 11.5132C8.22666 12.2421 8.03555 13.0532 8.03555 13.9088C8.03555 16.5377 9.82889 18.7555 12.2578 19.4021C12.7244 19.5266 13.2133 19.5932 13.72 19.5932C14.5756 19.5932 15.3867 19.4021 16.1156 19.0621H16.1133ZM11.9933 16.8799L10.7467 15.6332L15.44 10.9399L16.6867 12.1866L11.9933 16.8799V16.8799Z"/>
</svg>