<?xml version='1.0' encoding='UTF-8'?>
<svg xmlns="http://www.w3.org/2000/svg" width="32" height="32" viewBox="3 3 26 26" fill="currentColor">
<path d="M24.0644 16.6952C23.9 16.6419 23.7222 16.6086 23.5422 16.5886C23.1178 14.4641 22.0511 12.6419 20.6067 11.3952C19.7378 11.733 18.7178 12.1419 18.38 12.3375C18.36 12.3752 18.34 12.4108 18.32 12.4486C18.34 12.4108 18.36 12.3752 18.38 12.3375C20.2533 9.32634 23.7867 6.26856 23.7867 6.26856C20.8244 6.21745 18.8356 7.21079 17.62 8.15301C18.1311 5.71301 19.2667 4.33301 19.2667 4.33301C15.6622 5.14634 14.6956 8.19079 14.4378 9.80412C14.4333 9.80412 14.4311 9.80412 14.4267 9.80634C13.3756 8.29301 14.0467 6.26634 14.0467 6.26634C12.2333 6.99301 11.5822 8.59967 11.9778 10.9375C11.42 11.333 10.9067 11.8108 10.4511 12.353C13.3844 13.0108 16.1133 14.293 18.4267 15.8241C19.9289 15.7863 21.4889 16.2619 21.4889 17.2508C21.4889 17.5486 21.4533 17.8352 21.3956 18.1108C22.2822 18.9041 23.0533 19.713 23.6911 20.4975C24.58 20.0552 25.2022 19.0641 25.2022 18.2063C25.2022 17.4886 24.7778 16.9241 24.0644 16.6975V16.6952Z"/>
<path d="M20.7267 19.5779C20.1978 20.2646 19.4378 20.6979 18.5933 20.6979C16.9933 20.6979 15.6956 19.1535 15.6956 17.2491C15.6956 16.6935 15.7067 16.2868 15.7267 16.0002C13.8289 14.9691 11.7178 14.1468 9.50889 13.7246C9.02666 14.5868 8.66444 15.5513 8.45778 16.5891C8.27778 16.6091 8.10222 16.6424 7.93555 16.6957C7.22222 16.9224 6.79778 17.4868 6.79778 18.2046C6.79778 19.0513 7.46666 20.5446 8.56444 21.0202C9.02222 22.5868 13.3156 27.6713 16.0022 27.6713C18.6889 27.6713 22.5911 23.5268 23.1289 22.2935C22.5356 21.4313 21.72 20.5024 20.7289 19.5802L20.7267 19.5779ZM12.4356 19.7691C11.3733 19.7691 10.5111 19.0935 10.5111 18.2579C10.5111 17.6491 10.9711 17.1246 11.6311 16.8868C12.6022 17.3002 13.5133 17.7891 14.3533 18.3513C14.2911 19.1424 13.4578 19.7691 12.4333 19.7691H12.4356Z"/>
</svg>