<?xml version='1.0' encoding='UTF-8'?>
<svg xmlns="http://www.w3.org/2000/svg" width="32" height="32" viewBox="2 2 28 28" fill="currentColor">
<path d="M24.1644 14.2674L24.9133 11.1763L19.9756 7.28516V16.9785L19.9111 17.0429L16.8867 20.0674V25.1229L16.8222 25.1874L16.1578 25.8518L16 26.0096L15.8422 25.8518L15.1778 25.1874L15.1133 25.1229V20.0674L12.0889 17.0429L12.0244 16.9785V7.28516L7.08445 11.1763L7.83334 14.2674L5.72667 13.8007V17.734C5.72667 17.734 6.74889 19.3474 9.15111 19.7029L9.66222 21.8096L8.1 22.9807C8.1 22.9807 11.1444 26.9607 16 27.8518C20.8556 26.9629 23.9 22.9807 23.9 22.9807L22.3378 21.8096L22.8489 19.7029C25.2511 19.3474 26.2733 17.734 26.2733 17.734V13.8007L24.1667 14.2696L24.1644 14.2674Z"/>
<path d="M13.7956 5.88914V16.2447L16 18.4469L18.2022 16.2447V5.88914L16 4.15137L13.7956 5.88914Z"/>
</svg>