<?xml version='1.0' encoding='UTF-8'?>
<svg xmlns="http://www.w3.org/2000/svg" width="32" height="32" viewBox="1 0.5 30 30" fill="currentColor">
<path d="M25.5867 4.7507L23.2356 9.98625C23.9089 10.9885 24.6044 12.2129 24.7756 13.5663C24.9222 14.7151 24.9133 15.8285 24.3378 16.8329C23.5889 11.0863 20.2267 6.47959 16 4.68848C11.7711 6.47959 8.41111 11.0863 7.66 16.8329C7.07333 15.8907 7.07778 14.7151 7.22222 13.5663C7.39333 12.2107 8.08889 10.9885 8.76222 9.98625L6.41333 4.7507C4.73111 7.59737 3.94222 11.2774 4.43333 15.1596C5.15778 20.8729 8.46 25.4685 12.6378 27.3107L11.0333 23.7374H12.4333L16 27.304L19.5667 23.7374H20.9667L19.3622 27.3107C23.5378 25.4707 26.8422 20.8729 27.5667 15.1596C28.06 11.2774 27.2689 7.59959 25.5867 4.7507V4.7507ZM22.3244 17.9507C21.8933 19.1596 21.2244 20.1974 20.42 21.0107H18.7044L15.9978 23.7151L13.2911 21.0085H11.5756C10.7711 20.1951 10.1044 19.1574 9.67111 17.9485C9.29111 16.8818 9.13333 15.804 9.17555 14.784C9.78222 15.5729 10.5667 16.284 11.5067 16.8507C12.2156 17.2774 12.9533 17.584 13.6933 17.784L14.7689 18.8596L15.9956 20.0863L17.2222 18.8596L18.2978 17.784C19.0378 17.584 19.7778 17.2774 20.4844 16.8507C21.4244 16.284 22.2089 15.5729 22.8156 14.784C22.8556 15.804 22.7 16.884 22.32 17.9485L22.3244 17.9507Z"/>
</svg>