<?xml version='1.0' encoding='UTF-8'?>
<svg xmlns="http://www.w3.org/2000/svg" width="32" height="32" viewBox="1.5 1.5 29 29" fill="currentColor">
<path d="M10.1289 21.667L6.02 22.7314L6.57333 24.8692L10.6822 23.8048L10.1289 21.667Z"/>
<path d="M4.55333 8.58887C4.02444 13.1178 4.35333 16.9311 5.96222 21.1311C7.11333 20.8333 8.26444 20.5355 9.40222 20.24C8.77111 15.7755 7.17333 12.3044 4.55333 8.58887Z"/>
<path d="M21.8711 21.667L25.9778 22.7314L25.4244 24.8692L21.3156 23.8048L21.8711 21.667Z"/>
<path d="M27.4444 8.58887C27.9733 13.1178 27.6444 16.9311 26.0356 21.1311C24.8844 20.8333 23.7333 20.5355 22.5956 20.24C23.2267 15.7778 24.8244 12.3044 27.4444 8.58887V8.58887Z"/>
<path d="M19.6978 24.8115H12.2844V27.8493H19.6978V24.8115Z"/>
<path d="M16 4.15137C13.3422 10.2025 12.1622 15.5269 12.6178 22.1736H19.3667C19.8178 15.5158 18.5889 10.2047 16.0022 4.15137H16Z"/>
</svg>