<?xml version='1.0' encoding='UTF-8'?>
<svg xmlns="http://www.w3.org/2000/svg" width="32" height="32" viewBox="1 1 30 30" fill="currentColor">
<path d="M27.7356 10.2978C26.78 4.83556 18.1244 3.98 12.0844 5.93556L14.1578 7.99556C10.7111 9.90667 4.15111 13.9244 4.15111 20.6089C4.15111 29.2311 19.2333 29.08 23.7267 20.64C23.7267 20.64 23.1733 20.5178 22.0089 21.3022C15.2556 25.8556 10.9711 23.6711 11.1511 20.1311C11.2889 17.4 13.8422 15.8578 16.8556 15.2933V19.3444C16.8556 19.3444 29.1533 18.38 27.7378 10.3L27.7356 10.2978ZM20.2111 14.6978V11.8733C9.69111 12.1622 7.65333 20.3556 7.65333 20.3556C6.56 11.0467 21.7889 5.65111 24.42 9.54445C25.8089 11.6 24.1533 14.7533 20.2111 14.7V14.6978Z"/>
</svg>