<?xml version='1.0' encoding='UTF-8'?>
<svg xmlns="http://www.w3.org/2000/svg" width="32" height="32" viewBox="2.5 2.5 27 27" fill="currentColor">
<path d="M17.8067 20.7001L15.9978 22.3556L14.1889 20.7001C13.4 19.9778 12.1711 19.9845 11.3911 20.7178L8.42667 23.5001C9.96 26.0845 12.7756 27.8201 15.9978 27.8201C19.22 27.8201 22.0378 26.0867 23.5689 23.5001L20.6044 20.7178C19.8244 19.9867 18.5956 19.9778 17.8067 20.7001ZM14.5511 24.9023C14.22 24.5845 13.6889 24.2178 12.9911 24.2178C12.2933 24.2178 11.7622 24.5845 11.4311 24.9023C11.1756 25.149 11.0867 24.9112 11.0867 24.7001C11.0867 23.4334 12.0644 22.5667 12.9889 22.5667C13.9133 22.5667 14.8911 23.4356 14.8911 24.7001C14.8911 24.9112 14.8022 25.1467 14.5467 24.9023H14.5511ZM20.5622 24.9023C20.2311 24.5845 19.7 24.2178 19.0022 24.2178C18.3044 24.2178 17.7733 24.5845 17.4422 24.9023C17.1867 25.149 17.0978 24.9112 17.0978 24.7001C17.0978 23.4334 18.0756 22.5667 19 22.5667C19.9244 22.5667 20.9022 23.4356 20.9022 24.7001C20.9022 24.9112 20.8133 25.1467 20.5578 24.9023H20.5622Z"/>
<path d="M16.0333 12.5093C16.0333 12.5093 16.8689 11.676 17.9022 10.536C17.9267 10.5093 17.9511 10.4804 17.9756 10.4537C19.8089 8.42928 22.0711 5.68262 20.5356 4.53373C20.2267 4.30262 19.9311 4.20262 19.6511 4.20262C17.7267 4.20262 16.5133 8.96262 16.5133 8.96262C16.5156 8.96262 16.2867 4.18262 14.4044 4.18262C14.3044 4.18262 14.2 4.19595 14.0911 4.22484C12.2156 4.71151 14.3422 8.76928 14.3422 8.76928C14.3422 8.76928 13.0533 7.14484 12.18 7.14484C11.9711 7.14484 11.7867 7.23817 11.6489 7.46484C11.4244 7.83817 12.6844 9.24262 13.9089 10.476C14.9844 11.5582 16.0356 12.5071 16.0356 12.5071L16.0333 12.5093Z"/>
<path d="M24.7067 17.7733C24.7067 17.7733 27.7333 14.0867 25.3067 11.3089C24.3178 10.1778 23.2511 9.78223 22.2445 9.78223C19.1156 9.78223 16.0311 13.9622 16.0311 13.9622C16.0311 13.9622 12.8178 9.78223 9.75112 9.78223C8.74445 9.78223 7.67778 10.1778 6.6889 11.3089C4.26667 14.0822 7.27778 17.76 7.2889 17.7733C7.23112 18.1822 7.19778 18.5978 7.19778 19.0222C7.19778 20.1622 7.41556 21.2489 7.81112 22.2467L10.4756 19.7467C11.0911 19.1689 11.8756 18.8689 12.6689 18.84C13.1511 17.8778 14.5889 15.2711 15.9956 15.2711C17.4022 15.2711 18.84 17.8778 19.3222 18.84C20.1156 18.8689 20.9 19.1711 21.5156 19.7467L24.18 22.2467C24.5733 21.2467 24.7933 20.16 24.7933 19.0222C24.7933 18.5978 24.76 18.1822 24.7022 17.7733C24.7022 17.7733 24.7045 17.7733 24.7067 17.7733V17.7733ZM12.1333 14.3689C11.4178 15.82 10.2267 16.5244 8.49112 16.5244C8.34223 16.5244 8.18667 16.52 8.0289 16.5089C7.81112 16.1733 7.52001 15.6644 7.31778 15.0756C6.94001 13.9756 7.08445 13.2311 7.3089 12.76C7.56001 13.46 8.22667 13.96 9.01334 13.96C10.0133 13.96 10.8267 13.1489 10.8267 12.1467C10.8267 11.8156 10.7356 11.5044 10.58 11.2378C11.4178 11.4756 12.2067 12.0133 12.7111 12.4311C12.6422 12.9178 12.4867 13.6533 12.1333 14.3689V14.3689ZM19.8667 14.3689C19.5133 13.6533 19.3578 12.9156 19.2889 12.4311C19.9489 11.8844 21.1245 11.1156 22.2445 11.1156C23 11.1156 23.6733 11.4667 24.3022 12.1867C24.4578 12.3644 24.8178 12.78 24.8978 13.5156C24.5733 13.2044 24.1333 13.0133 23.6489 13.0133C22.6489 13.0133 21.8356 13.8244 21.8356 14.8267C21.8356 15.58 22.2933 16.2244 22.9467 16.4978C21.5133 16.3578 20.5022 15.6578 19.8667 14.3689V14.3689Z"/>
</svg>