<?xml version='1.0' encoding='UTF-8'?>
<svg xmlns="http://www.w3.org/2000/svg" width="32" height="32" viewBox="1.5 1.5 29 29" fill="currentColor">
<path d="M25.1156 13.2093L27.3867 11.8982L25.2467 8.19375L15.8956 13.5915V18.5315L21.2244 15.4538C21.4311 17.4538 20.4778 19.4849 18.6267 20.5515C18.4667 20.6449 18.3044 20.7271 18.1378 20.8004C16.7422 21.4226 15.1867 21.3871 13.86 20.796C12.88 20.3604 12.0244 19.6249 11.4467 18.6271C9.99778 16.1182 10.86 12.896 13.3711 11.4471C13.5311 11.3538 13.6956 11.2715 13.86 11.1982C15.2556 10.576 16.8111 10.6115 18.1378 11.2004V4.09375H13.86V6.70931C12.96 6.91597 12.0733 7.25819 11.2311 7.74264C10.3889 8.22931 9.65111 8.82486 9.02222 9.50042L6.75778 8.19153L4.61778 11.9004L6.88889 13.2115C6.34222 15.0004 6.31778 16.9449 6.88445 18.7938L4.61333 20.1049L6.75333 23.8093L9.02445 22.4982C10.3422 23.9138 12.0378 24.8649 13.86 25.2849V27.9071H18.1378V25.2915C19.0378 25.0849 19.9244 24.7426 20.7667 24.2582C21.6089 23.7715 22.3467 23.176 22.9756 22.5004L25.2422 23.8093L27.3822 20.1049L25.1111 18.7938C25.6578 17.0049 25.6822 15.0604 25.1156 13.2115V13.2093Z"/>
</svg>