<?xml version='1.0' encoding='UTF-8'?>
<svg xmlns="http://www.w3.org/2000/svg" width="32" height="32" viewBox="2 2 28 28" fill="currentColor">
<path d="M24.2133 20.7119C23.6333 19.5141 22.8133 18.3941 21.6511 17.8563C26.3467 14.0408 27.2067 10.863 26.4267 7.50967C26.3067 6.30967 24.6044 2.97189 23.6178 5.25412C21.96 9.08745 20.0111 12.503 17.2289 15.7674C16.5089 14.9208 15.8422 14.0652 15.2244 13.1963C14.0467 11.5386 13.0378 9.82523 12.1311 8.02745C10.3133 8.16967 8.91334 8.69634 7.77556 9.51856C7.04445 10.0474 6.42223 10.6963 5.86667 11.4474C5.03112 12.3186 3.55556 15.6252 5.97556 15.0474C8.12 14.5363 10.7378 13.6363 13.0733 13.8008C11.5556 14.4452 10.1956 15.3741 10.2511 15.4386C10.9333 16.2186 11.7756 17.023 12.8022 17.8563C11.64 18.3941 10.82 19.5141 10.24 20.7119C8.36445 19.9719 7.10667 19.8719 7.10667 19.8719C8.87334 23.9563 11.8533 27.5252 17.2244 27.5252C22.5956 27.5252 25.5756 23.9563 27.3422 19.8719C27.3422 19.8719 26.0844 19.9719 24.2089 20.7119H24.2133Z"/>
</svg>