<?xml version='1.0' encoding='UTF-8'?>
<svg xmlns="http://www.w3.org/2000/svg" width="32" height="32" viewBox="2 2 28 28" fill="currentColor">
<path d="M27.2489 24.4131L24.6178 21.7442C25.4244 20.1709 25.42 18.502 24.4622 17.5309L22.4667 19.5576L18.8422 15.8798C20.4156 14.2842 21.7844 12.8953 22.4467 12.222C24.5933 10.0442 23.7733 5.10645 23.7733 5.10645L15.9978 12.9953L8.22444 5.10867C8.22444 5.10867 7.40444 10.0464 9.55111 12.2242C10.2156 12.8976 11.5822 14.2842 13.1556 15.882L9.53111 19.5598L7.53555 17.5331C6.57777 18.5042 6.57333 20.1709 7.38 21.7464L4.74888 24.4153C4.19111 24.9776 4.19111 25.902 4.74888 26.4687C5.30666 27.0353 6.21777 27.0353 6.77333 26.4687L9.22888 23.9776C11.0267 25.3976 13.2044 25.6487 14.3667 24.4664L12.3733 22.4442C13.3378 21.4664 14.6378 20.1464 15.9978 18.7664C17.3556 20.1442 18.6578 21.4642 19.6222 22.4442L17.6289 24.4664C18.7889 25.6487 20.9689 25.3953 22.7667 23.9776L25.2222 26.4687C25.7756 27.0353 26.6889 27.0353 27.2467 26.4687C27.8044 25.902 27.8044 24.9776 27.2467 24.4153L27.2489 24.4131Z"/>
</svg>