<?xml version='1.0' encoding='UTF-8'?>
<svg xmlns="http://www.w3.org/2000/svg" width="32" height="32" viewBox="1 1 30 30" fill="currentColor">
<path d="M22.5156 16.9443C22.5156 16.9821 22.5133 17.0198 22.5133 17.0576L24.8089 17.5909C24.5289 15.5287 24.7489 13.4398 25.4222 11.5043C23.4089 11.1198 21.4911 10.2665 19.8444 8.99316L19.16 11.2465C21.1622 12.3576 22.5178 14.4932 22.5178 16.9443H22.5156Z"/>
<path d="M15.0311 14.6244H16.9711L18.9222 8.2044C18 7.34218 17.1867 6.33551 16.5245 5.18662C16.3333 4.85551 16.1622 4.51773 16.0022 4.17773C15.8422 4.51773 15.6711 4.85551 15.48 5.18662C14.8156 6.33551 14.0022 7.34218 13.0822 8.2044L15.0333 14.6244H15.0311Z"/>
<path d="M17.52 18.9398L22.1067 23.842C23.3133 23.4753 24.5911 23.2731 25.9178 23.2731C26.3 23.2731 26.6778 23.2931 27.0511 23.3242C26.8356 23.0153 26.6311 22.6998 26.44 22.3687C25.7756 21.2198 25.3111 20.0109 25.0267 18.782L18.4889 17.2598L17.52 18.9375V18.9398Z"/>
<path d="M6.08 23.2728C7.40667 23.2728 8.68445 23.4751 9.89111 23.8417L14.4778 18.9395L13.5089 17.2617L6.97112 18.7839C6.68667 20.0128 6.22 21.2195 5.55778 22.3706C5.36667 22.7017 5.16 23.0195 4.94667 23.3262C5.32 23.2951 5.69778 23.2751 6.08 23.2751V23.2728Z"/>
<path d="M16 23.4575C14.7711 23.4575 13.6244 23.1175 12.6444 22.5264L11.0356 24.2441C12.9622 25.033 14.66 26.2664 16 27.8197C17.34 26.2686 19.0378 25.033 20.9644 24.2441L19.3556 22.5264C18.3756 23.1175 17.2267 23.4575 16 23.4575V23.4575Z"/>
<path d="M9.48445 16.9443C9.48445 14.4932 10.84 12.3576 12.8422 11.2465L12.1578 8.99316C10.5111 10.2665 8.59334 11.1198 6.58 11.5043C7.25334 13.4398 7.47333 15.5287 7.19333 17.5909L9.48889 17.0576C9.48889 17.0198 9.48667 16.9821 9.48667 16.9443H9.48445Z"/>
</svg>