<?xml version='1.0' encoding='UTF-8'?>
<svg xmlns="http://www.w3.org/2000/svg" width="32" height="32" viewBox="2 1 28 28" fill="currentColor">
<path d="M28.8162 9H21.7715C21.1165 9 20.5877 9.51024 20.5877 10.1423C20.5877 10.7744 21.1165 12.0462 21.7715 12.0462H23.7708L23.4761 14.7853H21.5163L18.991 12.5463H13.009L10.4837 14.7853H8.52386L8.22924 12.0462H10.2285C10.8835 12.0462 11.4123 10.7744 11.4123 10.1423C11.4123 9.51024 10.8809 9 10.2285 9H3.18377C2.52875 9 2 9.51024 2 10.1423C2 10.7744 2.52875 12.0462 3.18377 12.0462H5.04622L5.64863 19.1008H11.286L12.9169 21.4515C13.6982 22.4364 14.8215 23 16 23C17.1785 23 18.3018 22.4364 19.0831 21.4515L20.714 19.1008H26.3514L26.9538 12.0462H28.8162C29.4713 12.0462 30 10.7744 30 10.1423C30 9.51024 29.4713 9 28.8162 9ZM16.0158 19.9055C14.8899 19.9055 13.9797 19.0247 13.9797 17.9407C13.9797 16.8568 14.8925 15.9759 16.0158 15.9759C17.139 15.9759 18.0519 16.8568 18.0519 17.9407C18.0519 19.0247 17.139 19.9055 16.0158 19.9055Z"/>
</svg>