<?xml version='1.0' encoding='UTF-8'?>
<svg xmlns="http://www.w3.org/2000/svg" width="32" height="32" viewBox="1.5 1.5 29 29" fill="currentColor">
<path d="M21.2481 10.4476L25.735 5H17.1748C10.4135 5 4.9342 10.5524 4.9342 17.4038V27H9.42105H11.4887V17.76L14.1767 14.9733C14.1353 14.8476 14.1147 14.7219 14.1147 14.5752C14.1147 13.8419 14.6936 13.2552 15.4173 13.2552C16.141 13.2552 16.7199 13.8419 16.7199 14.5752C16.7199 15.3086 16.141 15.8952 15.4173 15.8952C15.2932 15.8952 15.1692 15.8743 15.0658 15.8533L12.7293 18.2629V27H14.797V22.0133C14.3835 21.7829 14.1147 21.3429 14.1147 20.84C14.1147 20.1067 14.6936 19.52 15.4173 19.52C16.141 19.52 16.7199 20.1067 16.7199 20.84C16.7199 21.3429 16.4511 21.7829 16.0376 22.0133V27H18.0846H18.1053V18.2419L23.8947 20.4629L26.9342 17.1314C27.1203 16.7752 24.5977 12.4171 21.2481 10.4476ZM18.1053 9.48381C13.3083 9.48381 9.42105 13.5276 9.42105 18.5143V24.9467H6.96052V17.4038C6.96052 11.7048 11.5507 7.05333 17.1748 7.05333H21.4135L19.2838 9.63048C18.891 9.54667 18.4981 9.48381 18.1053 9.48381Z"/>
</svg>