<?xml version='1.0' encoding='UTF-8'?>
<svg xmlns="http://www.w3.org/2000/svg" width="32" height="32" viewBox="1 1 30 30" fill="currentColor">
<path d="M26.6156 7.22856L16 4.05078L5.38445 7.22856V12.1663C5.38445 17.4197 7.95333 22.3397 12.2622 25.3419L16 27.9463L19.7378 25.3419C24.0467 22.3397 26.6156 17.4174 26.6156 12.1663V7.22856V7.22856ZM14.2911 23.1819C13.7022 20.4463 11.7644 18.2286 9.22889 17.293C11.7667 16.3574 13.7022 14.1397 14.2911 11.4041C14.88 14.1397 16.8178 16.3574 19.3533 17.293C16.8156 18.2286 14.88 20.4463 14.2911 23.1819ZM19.5644 14.4108C19.2489 12.9441 18.2089 11.7552 16.8489 11.253C18.2089 10.7508 19.2489 9.56189 19.5644 8.09523C19.88 9.56189 20.92 10.7508 22.28 11.253C20.92 11.7552 19.88 12.9441 19.5644 14.4108Z"/>
</svg>