<?xml version='1.0' encoding='UTF-8'?>
<svg xmlns="http://www.w3.org/2000/svg" width="32" height="32" viewBox="2 1.5 28 28" fill="currentColor">
<path d="M23.1978 13.213C22.3222 12.3396 21.16 11.8574 19.9244 11.8574C19.4578 11.8574 19 11.9263 18.5667 12.0596C17.8511 12.2774 17.1956 12.6708 16.6511 13.2152L16.0044 13.8619L15.3578 13.2152C14.8133 12.6708 14.1578 12.2796 13.4422 12.0596C13.0067 11.9263 12.5511 11.8574 12.0844 11.8574C10.8467 11.8574 9.68444 12.3396 8.81111 13.213C7.56 14.4641 7.17778 16.2574 7.66 17.8441C7.87333 18.5463 8.25556 19.2085 8.81111 19.7641L9.45778 20.4108L16.0067 26.9596L23.2044 19.7619C23.76 19.2063 24.1422 18.5441 24.3556 17.8419C24.8378 16.2574 24.4556 14.4619 23.2044 13.2108L23.1978 13.213ZM20.1089 18.2241L16 22.333L11.8911 18.2241C11.3756 17.7085 11.0289 16.1996 12.4244 15.5863C13.82 14.973 16 17.3685 16 17.3685C16 17.3685 18.18 14.973 19.5756 15.5863C20.9711 16.1996 20.6244 17.7085 20.1089 18.2241V18.2241Z"/>
<path d="M25.9556 6.91559C24.7467 5.70671 23.1378 5.04004 21.4267 5.04004C20.78 5.04004 20.1489 5.13559 19.5489 5.32004C18.5578 5.62226 17.6511 6.16448 16.8978 6.91782L16.0022 7.81337L15.1067 6.91782C14.3533 6.16448 13.4467 5.62226 12.4556 5.32004C11.8533 5.13559 11.2222 5.04004 10.5778 5.04004C8.86667 5.04004 7.25778 5.70671 6.04889 6.91559C4.31778 8.64671 3.78889 11.1267 4.45556 13.32C4.65334 13.9667 4.95556 14.5889 5.36223 15.16C5.62001 13.8511 6.25778 12.6223 7.23556 11.6423C8.52889 10.3489 10.2511 9.63559 12.08 9.63559C12.7622 9.63559 13.4378 9.73559 14.0867 9.93337C14.7689 10.1423 15.4156 10.4578 16.0022 10.8689C16.5889 10.46 17.2356 10.1423 17.9178 9.93337C18.5667 9.73559 19.2422 9.63559 19.9244 9.63559C21.7556 9.63559 23.4756 10.3489 24.7711 11.6423C25.7511 12.6223 26.3867 13.8511 26.6444 15.16C27.0489 14.5889 27.3533 13.9689 27.5511 13.32C28.2178 11.1267 27.6889 8.64671 25.9578 6.91559H25.9556Z"/>
</svg>