<?xml version='1.0' encoding='UTF-8'?>
<svg xmlns="http://www.w3.org/2000/svg" width="32" height="32" viewBox="1.5 1 29 29" fill="currentColor">
<path d="M8.55633 18.6483C8.01638 17.8589 7.6847 17.0696 7.49186 16.5399C7.36844 16.1877 7.29902 15.9588 7.29388 15.928L7.09075 15.1643L6.98791 14.9047C4.66098 14.4933 3 14.5473 3 14.5473C3 14.5473 5.0878 18.422 9.62851 21.33C9.68508 20.9238 9.76993 20.4944 9.8882 20.047C9.77507 19.9647 9.66451 19.8799 9.56166 19.7873C9.15541 19.4351 8.82887 19.0391 8.5589 18.6509L8.55633 18.6483Z"/>
<path d="M24.202 13.8136C26.2949 12.0267 26.5341 7 26.5341 7C26.5341 7 22.9138 7.97191 20.4635 11.5021L21.2271 12.9626C21.2271 12.9626 22.6336 13.0397 24.202 13.8136V13.8136Z"/>
<path d="M8.75945 13.8136C10.3279 13.0449 11.7343 12.9626 11.7343 12.9626L12.498 11.5021C10.0476 7.96934 6.42739 7 6.42739 7C6.42739 7 6.67165 12.0267 8.75945 13.8136Z"/>
<path d="M26.0095 14.904L25.9067 15.1637L25.7035 15.9274C25.6984 15.9582 25.6316 16.1871 25.5056 16.5393C25.3127 17.0638 24.981 17.8583 24.4411 18.6477C24.1711 19.0436 23.8446 19.437 23.4383 19.7841C23.3355 19.8716 23.2249 19.9616 23.1118 20.0438C23.2301 20.4964 23.3149 20.9206 23.3715 21.3269C27.9096 18.4137 30 14.5441 30 14.5441C30 14.5441 28.3442 14.4926 26.0121 14.9015L26.0095 14.904Z"/>
<path d="M24.2226 15.5953C24.2226 15.5953 22.8161 14.338 19.8027 14.338C19.039 11.4968 16.5039 10.0801 16.5039 10.0801C16.5039 10.0801 13.9687 11.4968 13.205 14.338C10.1865 14.338 8.78002 15.5953 8.78002 15.5953C8.78002 15.5953 9.62594 18.7578 11.6726 19.4083C10.6647 22.1235 11.1481 24.3579 11.1481 24.3579C11.1481 24.3579 14.2438 24.0365 16.4987 22.0875C18.7536 24.0365 21.8493 24.3579 21.8493 24.3579C21.8493 24.3579 22.3327 22.1286 21.3248 19.4083C23.3766 18.7655 24.2226 15.5953 24.2226 15.5953Z"/>
</svg>