<?xml version='1.0' encoding='UTF-8'?>
<svg xmlns="http://www.w3.org/2000/svg" width="32" height="32" viewBox="1 1 30 30" fill="currentColor">
<path d="M19.2622 14.4219C23.1733 13.173 25.4311 9.83305 25.8044 6.28416C25.9422 4.9686 24.5756 4.02416 23.38 4.5886C19.6 6.3686 17.6867 9.91971 18.7022 14.1086C18.7622 14.3575 19.02 14.5019 19.2622 14.4242V14.4219Z"/>
<path fill-rule="evenodd" clip-rule="evenodd" d="M27.1067 14.4574L24.5933 18.5641C24.48 18.7508 24.2356 18.8085 24.0489 18.6952L22.1267 17.5174C21.9311 17.3974 21.6778 17.4685 21.5711 17.6708L19.9333 20.7819C19.8 21.0374 19.4444 21.0663 19.2689 20.8374L16.3156 16.9885C16.1578 16.7819 15.8467 16.7819 15.6889 16.9885L12.7356 20.8374C12.56 21.0663 12.2067 21.0352 12.0711 20.7819L10.4333 17.6708C10.3267 17.4685 10.0711 17.3974 9.87778 17.5174L7.95555 18.6952C7.76889 18.8085 7.52667 18.7508 7.41111 18.5641L4.89333 14.4574C4.68222 14.113 4.15111 14.2708 4.16 14.673C4.26889 19.2041 5.36 22.5774 5.83111 23.8396C5.92889 24.1019 6.26222 24.1819 6.46889 23.993L8.81111 21.8374C9.00222 21.6619 9.30667 21.7152 9.42889 21.9419L12.3133 27.3641C12.4511 27.6241 12.8178 27.6463 12.9867 27.4041L15.6756 23.5552C15.8333 23.3308 16.1667 23.3308 16.3244 23.5552L19.0133 27.4041C19.1822 27.6463 19.5489 27.6241 19.6867 27.3641L22.5711 21.9419C22.6933 21.713 22.9978 21.6619 23.1889 21.8374L25.5311 23.993C25.7378 24.1841 26.0711 24.1041 26.1689 23.8396C26.6422 22.5796 27.7311 19.2041 27.84 14.673C27.8489 14.2685 27.3178 14.113 27.1067 14.4574V14.4574Z"/>
<path d="M12.7378 14.4219C8.82667 13.173 6.57111 9.83305 6.19555 6.28416C6.05778 4.9686 7.42444 4.02416 8.62222 4.5886C12.4022 6.3686 14.3156 9.91971 13.3 14.1086C13.24 14.3575 12.9822 14.5019 12.74 14.4242L12.7378 14.4219Z"/>
</svg>