<?xml version='1.0' encoding='UTF-8'?>
<svg xmlns="http://www.w3.org/2000/svg" width="32" height="32" viewBox="2.5 2.5 27 27" fill="currentColor">
<path d="M27.2067 17.6331L24.1822 9.50646C23.7311 8.1798 22.3089 7.23535 20.5756 7.23535C18.6067 7.23535 17.0378 8.45313 16.84 10.0642H15.16C14.9622 8.45313 13.3933 7.23535 11.4244 7.23535C9.69111 7.23535 8.26889 8.1798 7.81778 9.50646L4.79334 17.6331C4.57111 18.2154 4.44667 18.8465 4.44667 19.5065C4.44667 22.4042 6.80445 24.762 9.70223 24.762C12.1956 24.762 14.2867 23.0176 14.8222 20.6842H17.18C17.7156 23.0154 19.8067 24.762 22.3 24.762C25.1978 24.762 27.5556 22.4042 27.5556 19.5065C27.5556 18.8465 27.4311 18.2154 27.2089 17.6331H27.2067ZM9.70223 22.5398C8.02667 22.5398 6.66889 21.182 6.66889 19.5065C6.66889 17.8309 8.02667 16.4731 9.70223 16.4731C11.3778 16.4731 12.7356 17.8309 12.7356 19.5065C12.7356 21.182 11.3778 22.5398 9.70223 22.5398ZM16.0022 18.402C15.2511 18.402 14.6422 17.7931 14.6422 17.042C14.6422 16.2909 15.2511 15.682 16.0022 15.682C16.7533 15.682 17.3622 16.2909 17.3622 17.042C17.3622 17.7931 16.7533 18.402 16.0022 18.402ZM22.3022 22.5398C20.6267 22.5398 19.2689 21.182 19.2689 19.5065C19.2689 17.8309 20.6267 16.4731 22.3022 16.4731C23.9778 16.4731 25.3356 17.8309 25.3356 19.5065C25.3356 21.182 23.9778 22.5398 22.3022 22.5398Z"/>
</svg>